<svg viewBox="0 0 1200 720" xmlns="http://www.w3.org/2000/svg" xmlns:xlink="http://www.w3.org/1999/xlink">
  <defs>
    <style>.cls-1{fill:none;}.cls-2{isolation:isolate;}.cls-3{clip-path:url(#clip-path);}.cls-4{fill:#e74256;}.cls-5{mix-blend-mode:multiply;}.cls-6{clip-path:url(#clip-path-2);}.cls-7{fill:#e4087e;}.cls-8{clip-path:url(#clip-path-3);}.cls-9{fill:#49a7de;}</style>
    <clipPath id="clip-path">
      <rect class="cls-1" height="720" width="1200"/>
    </clipPath>
    <clipPath id="clip-path-2">
      <polygon class="cls-1" id="SVGID" points="1389.47 786.52 -1.66 103.31 -0.33 -405.88 1389.47 -405.88 1389.47 786.52"/>
    </clipPath>
    <clipPath id="clip-path-3">
      <polygon class="cls-1" data-name="SVGID" id="SVGID-2" points="-169.93 58.22 1557.73 521.14 1588.2 2474.33 -200.4 2573.7 -169.93 58.22"/>
    </clipPath>
  </defs>
  <title>bg2</title>
  <g class="cls-2">
    <g data-name="Layer 1" id="Layer_1">
      <g class="cls-3">
        <rect class="cls-4" height="2583.53" width="1391.13" x="-1.67" y="-208.57"/>
        <g class="cls-5">
          <g class="cls-6">
            <rect class="cls-7" height="1440.07" width="1.39" x="1.12" y="-410.27"/>
            <rect class="cls-7" height="1440.07" width="8.35" x="6.69" y="-410.27"/>
            <rect class="cls-7" height="1440.07" width="1.39" x="17.83" y="-410.27"/>
            <rect class="cls-7" height="1440.07" width="1.39" x="16.44" y="-410.27"/>
            <rect class="cls-7" height="1440.07" width="2.78" x="20.61" y="-410.27"/>
            <rect class="cls-7" height="1440.07" transform="translate(89.96 619.52) rotate(180)" width="1.39" x="44.28" y="-410.27"/>
            <rect class="cls-7" height="1440.07" transform="translate(56.54 619.52) rotate(180)" width="6.96" x="24.79" y="-410.27"/>
            <rect class="cls-7" height="1440.07" width="5.57" x="34.54" y="-410.27"/>
            <rect class="cls-7" height="1440.07" width="1.39" x="52.64" y="-410.27"/>
            <rect class="cls-7" height="1440.07" width="1.39" x="55.42" y="-410.27"/>
            <rect class="cls-7" height="1440.07" width="4.18" x="47.07" y="-410.27"/>
            <rect class="cls-7" height="1440.07" width="1.39" x="84.66" y="-410.27"/>
            <rect class="cls-7" height="1440.07" width="1.39" x="65.17" y="-410.27"/>
            <rect class="cls-7" height="1440.07" width="4.18" x="77.7" y="-410.27"/>
            <rect class="cls-7" height="1440.07" width="1.39" x="58.21" y="-410.27"/>
            <rect class="cls-7" height="1440.07" width="1.39" x="62.39" y="-410.27"/>
            <rect class="cls-7" height="1440.07" width="2.78" x="67.96" y="-410.27"/>
            <rect class="cls-7" height="1440.07" width="4.18" x="72.13" y="-410.27"/>
            <rect class="cls-7" height="1440.07" transform="translate(318.32 619.52) rotate(180)" width="1.39" x="158.46" y="-410.27"/>
            <rect class="cls-7" height="1440.07" transform="translate(312.75 619.52) rotate(180)" width="1.39" x="155.68" y="-410.27"/>
            <rect class="cls-7" height="1440.07" transform="translate(346.17 619.52) rotate(180)" width="4.18" x="171" y="-410.27"/>
            <rect class="cls-7" height="1440.07" transform="translate(337.81 619.52) rotate(180)" width="1.39" x="168.21" y="-410.27"/>
            <rect class="cls-7" height="1440.07" transform="translate(354.52 619.52) rotate(180)" width="1.39" x="176.57" y="-410.27"/>
            <rect class="cls-7" height="1440.07" transform="translate(328.07 619.52) rotate(180)" width="2.78" x="162.64" y="-410.27"/>
            <rect class="cls-7" height="1440.07" width="1.39" x="88.84" y="-410.27"/>
            <rect class="cls-7" height="1440.07" width="6.96" x="140.36" y="-410.27"/>
            <rect class="cls-7" height="1440.07" transform="translate(205.53 619.52) rotate(180)" width="5.57" x="99.98" y="-410.27"/>
            <rect class="cls-7" height="1440.07" transform="translate(273.76 619.52) rotate(180)" width="1.39" x="136.18" y="-410.27"/>
            <rect class="cls-7" height="1440.07" transform="translate(268.19 619.52) rotate(180)" width="1.39" x="133.4" y="-410.27"/>
            <rect class="cls-7" height="1440.07" transform="translate(187.43 619.52) rotate(180)" width="4.18" x="91.63" y="-410.27"/>
            <rect class="cls-7" height="1440.07" transform="translate(218.06 619.52) rotate(180)" width="1.39" x="108.34" y="-410.27"/>
            <rect class="cls-7" height="1440.07" transform="translate(248.7 619.52) rotate(180)" width="1.39" x="123.65" y="-410.27"/>
            <rect class="cls-7" height="1440.07" transform="translate(229.2 619.52) rotate(180)" width="4.18" x="112.51" y="-410.27"/>
            <rect class="cls-7" height="1440.07" transform="translate(259.84 619.52) rotate(180)" width="1.39" x="129.22" y="-410.27"/>
            <rect class="cls-7" height="1440.07" transform="translate(254.27 619.52) rotate(180)" width="1.39" x="126.44" y="-410.27"/>
            <rect class="cls-7" height="1440.07" transform="translate(241.74 619.52) rotate(180)" width="2.78" x="119.48" y="-410.27"/>
            <rect class="cls-7" height="1440.07" transform="translate(301.61 619.52) rotate(180)" width="4.18" x="148.72" y="-410.27"/>
            <rect class="cls-7" height="1440.07" width="1.39" x="204.41" y="-410.27"/>
            <rect class="cls-7" height="1440.07" width="1.39" x="184.92" y="-410.27"/>
            <rect class="cls-7" height="1440.07" width="4.18" x="197.45" y="-410.27"/>
            <rect class="cls-7" height="1440.07" width="1.39" x="182.14" y="-410.27"/>
            <rect class="cls-7" height="1440.07" width="2.78" x="187.7" y="-410.27"/>
            <rect class="cls-7" height="1440.07" width="4.18" x="191.88" y="-410.27"/>
            <rect class="cls-7" height="1440.07" width="1.39" x="208.59" y="-410.27"/>
            <rect class="cls-7" height="1440.07" transform="translate(426.93 619.52) rotate(180)" width="4.18" x="211.38" y="-410.27"/>
            <rect class="cls-7" height="1440.07" transform="translate(495.16 619.52) rotate(-180)" width="8.35" x="243.4" y="-410.27"/>
            <rect class="cls-7" height="1440.07" transform="translate(479.84 619.52) rotate(180)" width="1.39" x="239.23" y="-410.27"/>
            <rect class="cls-7" height="1440.07" transform="translate(482.63 619.52) rotate(-180)" width="1.39" x="240.62" y="-410.27"/>
            <rect class="cls-7" height="1440.07" transform="translate(472.88 619.52) rotate(180)" width="2.78" x="235.05" y="-410.27"/>
            <rect class="cls-7" height="1440.07" width="6.96" x="226.69" y="-410.27"/>
            <rect class="cls-7" height="1440.07" transform="translate(442.25 619.52) rotate(180)" width="5.57" x="218.34" y="-410.27"/>
            <rect class="cls-7" height="1440.07" transform="translate(518.83 619.52) rotate(180)" width="1.39" x="258.72" y="-410.27"/>
            <rect class="cls-7" height="1440.07" transform="translate(529.97 619.52) rotate(180)" width="1.39" x="264.29" y="-410.27"/>
            <rect class="cls-7" height="1440.07" transform="translate(524.4 619.52) rotate(180)" width="1.39" x="261.5" y="-410.27"/>
            <rect class="cls-7" height="1440.07" transform="translate(511.87 619.52) rotate(180)" width="2.78" x="254.54" y="-410.27"/>
            <rect class="cls-7" height="1440.07" width="1.39" x="269.86" y="-410.27"/>
            <rect class="cls-7" height="1440.07" width="1.39" x="272.64" y="-410.27"/>
            <rect class="cls-7" height="1440.07" width="1.39" x="275.43" y="-410.27"/>
            <rect class="cls-7" height="1440.07" transform="translate(577.32 619.52) rotate(180)" width="4.18" x="286.57" y="-410.27"/>
            <rect class="cls-7" height="1440.07" width="5.57" x="279.61" y="-410.27"/>
            <rect class="cls-7" height="1440.07" width="1.39" x="317.27" y="-410.27"/>
            <rect class="cls-7" height="1440.06" width="1.39" x="297.78" y="-410.27"/>
            <rect class="cls-7" height="1440.07" width="4.18" x="310.31" y="-410.27"/>
            <rect class="cls-7" height="1440.06" width="1.39" x="294.99" y="-410.27"/>
            <rect class="cls-7" height="1440.06" width="2.78" x="300.56" y="-410.27"/>
            <rect class="cls-7" height="1440.06" width="4.18" x="304.74" y="-410.27"/>
            <rect class="cls-7" height="1440.07" width="1.39" x="321.45" y="-410.27"/>
            <rect class="cls-7" height="1440.07" width="4.18" x="399.43" y="-410.27"/>
            <rect class="cls-7" height="1440.07" width="8.35" x="363.22" y="-410.27"/>
            <rect class="cls-7" height="1440.07" width="1.39" x="374.36" y="-410.27"/>
            <rect class="cls-7" height="1440.07" width="1.39" x="372.97" y="-410.27"/>
            <rect class="cls-7" height="1440.07" width="2.78" x="377.15" y="-410.27"/>
            <rect class="cls-7" height="1440.07" transform="translate(769.61 619.52) rotate(-180)" width="6.96" x="381.32" y="-410.27"/>
            <rect class="cls-7" height="1440.07" width="5.57" x="391.07" y="-410.27"/>
            <rect class="cls-7" height="1440.07" width="1.39" x="354.87" y="-410.27"/>
            <rect class="cls-7" height="1440.07" width="1.39" x="349.3" y="-410.27"/>
            <rect class="cls-7" height="1440.07" width="1.39" x="352.08" y="-410.27"/>
            <rect class="cls-7" height="1440.07" width="2.78" x="357.65" y="-410.27"/>
            <rect class="cls-7" height="1440.07" transform="translate(688.85 619.52) rotate(180)" width="1.39" x="343.73" y="-410.27"/>
            <rect class="cls-7" height="1440.07" transform="translate(683.28 619.52) rotate(180)" width="1.39" x="340.94" y="-410.27"/>
            <rect class="cls-7" height="1440.07" transform="translate(677.71 619.52) rotate(180)" width="1.39" x="338.16" y="-410.27"/>
            <rect class="cls-7" height="1440.07" width="4.18" x="324.23" y="-410.27"/>
            <rect class="cls-7" height="1440.07" transform="translate(665.18 619.52) rotate(180)" width="5.57" x="329.8" y="-410.27"/>
            <rect class="cls-7" height="1440.07" width="1.39" x="407.85" y="-410.27"/>
            <rect class="cls-7" height="1440.07" width="1.39" x="410.63" y="-410.27"/>
            <rect class="cls-7" height="1440.07" width="8.35" x="416.2" y="-410.27"/>
            <rect class="cls-7" height="1440.07" width="1.39" x="427.34" y="-410.27"/>
            <rect class="cls-7" height="1440.07" width="1.39" x="425.95" y="-410.27"/>
            <rect class="cls-7" height="1440.07" width="2.78" x="430.13" y="-410.27"/>
            <rect class="cls-7" height="1440.07" transform="translate(908.99 619.52) rotate(180)" width="1.39" x="453.8" y="-410.27"/>
            <rect class="cls-7" height="1440.07" transform="translate(875.57 619.52) rotate(180)" width="6.96" x="434.3" y="-410.27"/>
            <rect class="cls-7" height="1440.07" width="5.57" x="444.05" y="-410.27"/>
            <rect class="cls-7" height="1440.07" width="1.39" x="462.15" y="-410.27"/>
            <rect class="cls-7" height="1440.07" width="1.39" x="464.94" y="-410.27"/>
            <rect class="cls-7" height="1440.07" width="4.18" x="456.58" y="-410.27"/>
            <rect class="cls-7" height="1440.07" width="1.39" x="494.18" y="-410.27"/>
            <rect class="cls-7" height="1440.07" width="1.39" x="474.68" y="-410.27"/>
            <rect class="cls-7" height="1440.07" width="4.18" x="487.22" y="-410.27"/>
            <rect class="cls-7" height="1440.07" width="1.39" x="467.72" y="-410.27"/>
            <rect class="cls-7" height="1440.07" width="1.39" x="471.9" y="-410.27"/>
            <rect class="cls-7" height="1440.07" width="2.78" x="477.47" y="-410.27"/>
            <rect class="cls-7" height="1440.07" width="4.18" x="481.65" y="-410.27"/>
            <rect class="cls-7" height="1440.07" transform="translate(1137.35 619.52) rotate(180)" width="1.39" x="567.98" y="-410.27"/>
            <rect class="cls-7" height="1440.07" transform="translate(1131.78 619.52) rotate(180)" width="1.39" x="565.19" y="-410.27"/>
            <rect class="cls-7" height="1440.07" transform="translate(1165.2 619.52) rotate(180)" width="4.18" x="580.51" y="-410.27"/>
            <rect class="cls-7" height="1440.07" transform="translate(1156.84 619.52) rotate(180)" width="1.39" x="577.73" y="-410.27"/>
            <rect class="cls-7" height="1440.07" transform="translate(1173.55 619.52) rotate(180)" width="1.39" x="586.08" y="-410.27"/>
            <rect class="cls-7" height="1440.07" transform="translate(1147.1 619.52) rotate(180)" width="2.78" x="572.16" y="-410.27"/>
            <rect class="cls-7" height="1440.07" width="1.39" x="498.36" y="-410.27"/>
            <rect class="cls-7" height="1440.07" width="6.96" x="549.88" y="-410.27"/>
            <rect class="cls-7" height="1440.07" transform="translate(1024.56 619.52) rotate(180)" width="5.57" x="509.5" y="-410.27"/>
            <rect class="cls-7" height="1440.07" transform="translate(1092.79 619.52) rotate(180)" width="1.39" x="545.7" y="-410.27"/>
            <rect class="cls-7" height="1440.07" transform="translate(1087.22 619.52) rotate(180)" width="1.39" x="542.91" y="-410.27"/>
            <rect class="cls-7" height="1440.07" transform="translate(1006.46 619.52) rotate(180)" width="4.18" x="501.14" y="-410.27"/>
            <rect class="cls-7" height="1440.07" transform="translate(1037.09 619.52) rotate(180)" width="1.39" x="517.85" y="-410.27"/>
            <rect class="cls-7" height="1440.07" transform="translate(1067.73 619.52) rotate(180)" width="1.39" x="533.17" y="-410.27"/>
            <rect class="cls-7" height="1440.07" transform="translate(1048.23 619.52) rotate(180)" width="4.18" x="522.03" y="-410.27"/>
            <rect class="cls-7" height="1440.07" transform="translate(1078.87 619.52) rotate(180)" width="1.39" x="538.74" y="-410.27"/>
            <rect class="cls-7" height="1440.07" transform="translate(1073.3 619.52) rotate(180)" width="1.39" x="535.95" y="-410.27"/>
            <rect class="cls-7" height="1440.07" transform="translate(1060.76 619.52) rotate(180)" width="2.78" x="528.99" y="-410.27"/>
            <rect class="cls-7" height="1440.07" transform="translate(1120.64 619.52) rotate(180)" width="4.18" x="558.23" y="-410.27"/>
            <rect class="cls-7" height="1440.07" width="1.39" x="594.43" y="-410.27"/>
            <rect class="cls-7" height="1440.07" width="1.39" x="591.65" y="-410.27"/>
            <rect class="cls-7" height="1440.07" width="2.78" x="597.22" y="-410.27"/>
            <rect class="cls-7" height="1440.07" width="4.18" x="601.4" y="-410.27"/>
            <rect class="cls-7" height="1440.07" width="1.39" x="609.71" y="-403.79"/>
            <rect class="cls-7" height="1440.07" width="1.39" x="612.5" y="-403.79"/>
            <rect class="cls-7" height="1440.07" width="8.35" x="618.07" y="-403.79"/>
            <rect class="cls-7" height="1440.07" width="1.39" x="629.21" y="-403.79"/>
            <rect class="cls-7" height="1440.07" width="1.39" x="627.82" y="-403.79"/>
            <rect class="cls-7" height="1440.07" width="2.78" x="631.99" y="-403.79"/>
            <rect class="cls-7" height="1440.07" transform="translate(1312.72 632.49) rotate(180)" width="1.39" x="655.66" y="-403.79"/>
            <rect class="cls-7" height="1440.07" transform="translate(1279.3 632.49) rotate(180)" width="6.96" x="636.17" y="-403.79"/>
            <rect class="cls-7" height="1440.07" width="5.57" x="645.92" y="-403.79"/>
            <rect class="cls-7" height="1440.07" width="1.39" x="664.02" y="-403.79"/>
            <rect class="cls-7" height="1440.07" width="1.39" x="666.8" y="-403.79"/>
            <rect class="cls-7" height="1440.07" width="4.18" x="658.45" y="-403.79"/>
            <rect class="cls-7" height="1440.07" width="1.39" x="696.05" y="-403.79"/>
            <rect class="cls-7" height="1440.07" width="1.39" x="676.55" y="-403.79"/>
            <rect class="cls-7" height="1440.07" width="4.18" x="689.08" y="-403.79"/>
            <rect class="cls-7" height="1440.07" width="1.39" x="669.59" y="-403.79"/>
            <rect class="cls-7" height="1440.07" width="1.39" x="673.77" y="-403.79"/>
            <rect class="cls-7" height="1440.07" width="2.78" x="679.34" y="-403.79"/>
            <rect class="cls-7" height="1440.07" width="4.18" x="683.51" y="-403.79"/>
            <rect class="cls-7" height="1440.07" transform="translate(1541.08 632.49) rotate(180)" width="1.39" x="769.84" y="-403.79"/>
            <rect class="cls-7" height="1440.07" transform="translate(1535.51 632.49) rotate(180)" width="1.39" x="767.06" y="-403.79"/>
            <rect class="cls-7" height="1440.07" transform="translate(1568.93 632.49) rotate(180)" width="4.18" x="782.38" y="-403.79"/>
            <rect class="cls-7" height="1440.07" transform="translate(1560.58 632.49) rotate(180)" width="1.39" x="779.59" y="-403.79"/>
            <rect class="cls-7" height="1440.07" transform="translate(1577.29 632.49) rotate(180)" width="1.39" x="787.95" y="-403.79"/>
            <rect class="cls-7" height="1440.07" transform="translate(1550.83 632.49) rotate(180)" width="2.78" x="774.02" y="-403.79"/>
            <rect class="cls-7" height="1440.07" width="1.39" x="700.22" y="-403.79"/>
            <rect class="cls-7" height="1440.07" width="6.96" x="751.74" y="-403.79"/>
            <rect class="cls-7" height="1440.07" transform="translate(1428.29 632.49) rotate(180)" width="5.57" x="711.36" y="-403.79"/>
            <rect class="cls-7" height="1440.07" transform="translate(1496.52 632.49) rotate(180)" width="1.39" x="747.57" y="-403.79"/>
            <rect class="cls-7" height="1440.07" transform="translate(1490.95 632.49) rotate(180)" width="1.39" x="744.78" y="-403.79"/>
            <rect class="cls-7" height="1440.07" transform="translate(1410.19 632.49) rotate(180)" width="4.18" x="703.01" y="-403.79"/>
            <rect class="cls-7" height="1440.07" transform="translate(1440.83 632.49) rotate(180)" width="1.39" x="719.72" y="-403.79"/>
            <rect class="cls-7" height="1440.07" transform="translate(1471.46 632.49) rotate(180)" width="1.39" x="735.03" y="-403.79"/>
            <rect class="cls-7" height="1440.07" transform="translate(1451.97 632.49) rotate(180)" width="4.18" x="723.89" y="-403.79"/>
            <rect class="cls-7" height="1440.07" transform="translate(1482.6 632.49) rotate(180)" width="1.39" x="740.6" y="-403.79"/>
            <rect class="cls-7" height="1440.07" transform="translate(1477.03 632.49) rotate(180)" width="1.39" x="737.82" y="-403.79"/>
            <rect class="cls-7" height="1440.07" transform="translate(1464.5 632.49) rotate(180)" width="2.78" x="730.86" y="-403.79"/>
            <rect class="cls-7" height="1440.07" transform="translate(1524.37 632.49) rotate(180)" width="4.18" x="760.1" y="-403.79"/>
            <rect class="cls-7" height="1440.07" width="1.39" x="815.8" y="-403.79"/>
            <rect class="cls-7" height="1440.07" width="1.39" x="796.3" y="-403.79"/>
            <rect class="cls-7" height="1440.07" width="4.18" x="808.83" y="-403.79"/>
            <rect class="cls-7" height="1440.07" width="1.39" x="793.52" y="-403.79"/>
            <rect class="cls-7" height="1440.07" width="2.78" x="799.09" y="-403.79"/>
            <rect class="cls-7" height="1440.07" width="4.18" x="803.26" y="-403.79"/>
            <rect class="cls-7" height="1440.07" width="1.39" x="819.97" y="-403.79"/>
            <rect class="cls-7" height="1440.07" transform="translate(1649.69 632.49) rotate(180)" width="4.18" x="822.76" y="-403.79"/>
            <rect class="cls-7" height="1440.07" transform="translate(1717.92 632.49) rotate(-180)" width="8.35" x="854.78" y="-403.79"/>
            <rect class="cls-7" height="1440.07" transform="translate(1702.6 632.49) rotate(180)" width="1.39" x="850.61" y="-403.79"/>
            <rect class="cls-7" height="1440.07" transform="translate(1705.39 632.49) rotate(-180)" width="1.39" x="852" y="-403.79"/>
            <rect class="cls-7" height="1440.07" transform="translate(1695.64 632.49) rotate(180)" width="2.78" x="846.43" y="-403.79"/>
            <rect class="cls-7" height="1440.07" width="6.96" x="838.07" y="-403.79"/>
            <rect class="cls-7" height="1440.07" transform="translate(1665.01 632.49) rotate(180)" width="5.57" x="829.72" y="-403.79"/>
            <rect class="cls-7" height="1440.07" transform="translate(1741.59 632.49) rotate(180)" width="1.39" x="870.1" y="-403.79"/>
            <rect class="cls-7" height="1440.07" transform="translate(1752.73 632.49) rotate(180)" width="1.39" x="875.67" y="-403.79"/>
            <rect class="cls-7" height="1440.07" transform="translate(1747.16 632.49) rotate(180)" width="1.39" x="872.89" y="-403.79"/>
            <rect class="cls-7" height="1440.07" transform="translate(1734.63 632.49) rotate(180)" width="2.78" x="865.92" y="-403.79"/>
            <rect class="cls-7" height="1440.07" width="1.39" x="881.24" y="-403.79"/>
            <rect class="cls-7" height="1440.07" width="1.39" x="884.02" y="-403.79"/>
            <rect class="cls-7" height="1440.07" width="1.39" x="886.81" y="-403.79"/>
            <rect class="cls-7" height="1440.07" transform="translate(1800.08 632.49) rotate(180)" width="4.18" x="897.95" y="-403.79"/>
            <rect class="cls-7" height="1440.07" width="5.57" x="890.99" y="-403.79"/>
            <rect class="cls-7" height="1440.07" width="1.39" x="928.65" y="-403.79"/>
            <rect class="cls-7" height="1440.06" width="1.39" x="909.16" y="-403.79"/>
            <rect class="cls-7" height="1440.07" width="4.18" x="921.69" y="-403.79"/>
            <rect class="cls-7" height="1440.06" width="1.39" x="906.37" y="-403.79"/>
            <rect class="cls-7" height="1440.06" width="2.78" x="911.94" y="-403.79"/>
            <rect class="cls-7" height="1440.06" width="4.18" x="916.12" y="-403.79"/>
            <rect class="cls-7" height="1440.07" width="1.39" x="932.83" y="-403.79"/>
            <rect class="cls-7" height="1440.07" width="4.18" x="1010.81" y="-403.79"/>
            <rect class="cls-7" height="1440.07" width="8.35" x="974.6" y="-403.79"/>
            <rect class="cls-7" height="1440.07" width="1.39" x="985.74" y="-403.79"/>
            <rect class="cls-7" height="1440.07" width="1.39" x="984.35" y="-403.79"/>
            <rect class="cls-7" height="1440.07" width="2.78" x="988.53" y="-403.79"/>
            <rect class="cls-7" height="1440.07" transform="translate(1992.37 632.49) rotate(-180)" width="6.96" x="992.71" y="-403.79"/>
            <rect class="cls-7" height="1440.07" width="5.57" x="1002.45" y="-403.79"/>
            <rect class="cls-7" height="1440.07" width="1.39" x="966.25" y="-403.79"/>
            <rect class="cls-7" height="1440.07" width="1.39" x="960.68" y="-403.79"/>
            <rect class="cls-7" height="1440.07" width="1.39" x="963.46" y="-403.79"/>
            <rect class="cls-7" height="1440.07" width="2.78" x="969.03" y="-403.79"/>
            <rect class="cls-7" height="1440.07" transform="translate(1911.61 632.49) rotate(180)" width="1.39" x="955.11" y="-403.79"/>
            <rect class="cls-7" height="1440.07" transform="translate(1906.04 632.49) rotate(180)" width="1.39" x="952.33" y="-403.79"/>
            <rect class="cls-7" height="1440.07" transform="translate(1900.47 632.49) rotate(180)" width="1.39" x="949.54" y="-403.79"/>
            <rect class="cls-7" height="1440.07" width="4.18" x="935.61" y="-403.79"/>
            <rect class="cls-7" height="1440.07" transform="translate(1887.94 632.49) rotate(180)" width="5.57" x="941.19" y="-403.79"/>
            <rect class="cls-7" height="1440.07" width="1.39" x="1019.23" y="-403.79"/>
            <rect class="cls-7" height="1440.07" width="1.39" x="1022.01" y="-403.79"/>
            <rect class="cls-7" height="1440.07" width="8.35" x="1027.58" y="-403.79"/>
            <rect class="cls-7" height="1440.07" width="1.39" x="1038.72" y="-403.79"/>
            <rect class="cls-7" height="1440.07" width="1.39" x="1037.33" y="-403.79"/>
            <rect class="cls-7" height="1440.07" width="2.78" x="1041.51" y="-403.79"/>
            <rect class="cls-7" height="1440.07" transform="translate(2131.75 632.49) rotate(180)" width="1.39" x="1065.18" y="-403.79"/>
            <rect class="cls-7" height="1440.07" transform="translate(2098.33 632.49) rotate(180)" width="6.96" x="1045.69" y="-403.79"/>
            <rect class="cls-7" height="1440.07" width="5.57" x="1055.43" y="-403.79"/>
            <rect class="cls-7" height="1440.07" width="1.39" x="1073.53" y="-403.79"/>
            <rect class="cls-7" height="1440.07" width="1.39" x="1076.32" y="-403.79"/>
            <rect class="cls-7" height="1440.07" width="4.18" x="1067.96" y="-403.79"/>
            <rect class="cls-7" height="1440.07" width="1.39" x="1105.56" y="-403.79"/>
            <rect class="cls-7" height="1440.07" width="1.39" x="1086.07" y="-403.79"/>
            <rect class="cls-7" height="1440.07" width="4.18" x="1098.6" y="-403.79"/>
            <rect class="cls-7" height="1440.07" width="1.39" x="1079.1" y="-403.79"/>
            <rect class="cls-7" height="1440.07" width="1.39" x="1083.28" y="-403.79"/>
            <rect class="cls-7" height="1440.07" width="2.78" x="1088.85" y="-403.79"/>
            <rect class="cls-7" height="1440.07" width="4.18" x="1093.03" y="-403.79"/>
            <rect class="cls-7" height="1440.07" transform="translate(2360.11 632.49) rotate(180)" width="1.39" x="1179.36" y="-403.79"/>
            <rect class="cls-7" height="1440.07" transform="translate(2354.54 632.49) rotate(180)" width="1.39" x="1176.57" y="-403.79"/>
            <rect class="cls-7" height="1440.07" transform="translate(2387.96 632.49) rotate(180)" width="4.18" x="1191.89" y="-403.79"/>
            <rect class="cls-7" height="1440.07" transform="translate(2379.61 632.49) rotate(180)" width="1.39" x="1189.11" y="-403.79"/>
            <rect class="cls-7" height="1440.07" transform="translate(2396.31 632.49) rotate(180)" width="1.39" x="1197.46" y="-403.79"/>
            <rect class="cls-7" height="1440.07" transform="translate(2369.86 632.49) rotate(180)" width="2.78" x="1183.54" y="-403.79"/>
            <rect class="cls-7" height="1440.07" width="1.39" x="1109.74" y="-403.79"/>
            <rect class="cls-7" height="1440.07" width="6.96" x="1161.26" y="-403.79"/>
            <rect class="cls-7" height="1440.07" transform="translate(2247.32 632.49) rotate(180)" width="5.57" x="1120.88" y="-403.79"/>
            <rect class="cls-7" height="1440.07" transform="translate(2315.55 632.49) rotate(180)" width="1.39" x="1157.08" y="-403.79"/>
            <rect class="cls-7" height="1440.07" transform="translate(2309.98 632.49) rotate(180)" width="1.39" x="1154.3" y="-403.79"/>
            <rect class="cls-7" height="1440.07" transform="translate(2229.22 632.49) rotate(180)" width="4.18" x="1112.52" y="-403.79"/>
            <rect class="cls-7" height="1440.07" transform="translate(2259.86 632.49) rotate(180)" width="1.39" x="1129.23" y="-403.79"/>
            <rect class="cls-7" height="1440.07" transform="translate(2290.49 632.49) rotate(180)" width="1.39" x="1144.55" y="-403.79"/>
            <rect class="cls-7" height="1440.07" transform="translate(2271 632.49) rotate(180)" width="4.18" x="1133.41" y="-403.79"/>
            <rect class="cls-7" height="1440.07" transform="translate(2301.63 632.49) rotate(180)" width="1.39" x="1150.12" y="-403.79"/>
            <rect class="cls-7" height="1440.07" transform="translate(2296.06 632.49) rotate(180)" width="1.39" x="1147.33" y="-403.79"/>
            <rect class="cls-7" height="1440.07" transform="translate(2283.53 632.49) rotate(180)" width="2.78" x="1140.37" y="-403.79"/>
            <rect class="cls-7" height="1440.07" transform="translate(2343.4 632.49) rotate(180)" width="4.18" x="1169.61" y="-403.79"/>
          </g>
        </g>
        <g class="cls-5">
          <g class="cls-8">
            <rect class="cls-9" height="2489.73" width="1.39" x="-0.69" y="3.75"/>
            <rect class="cls-9" height="2489.73" width="1.39" x="4.88" y="3.75"/>
            <rect class="cls-9" height="2489.73" width="1.39" x="7.67" y="3.75"/>
            <rect class="cls-9" height="2489.73" width="1.39" x="10.45" y="3.75"/>
            <rect class="cls-9" height="2489.73" width="4.18" x="21.59" y="3.75"/>
            <rect class="cls-9" height="2489.73" width="5.57" x="14.63" y="3.75"/>
            <rect class="cls-9" height="2489.73" width="1.39" x="52.29" y="3.75"/>
            <rect class="cls-9" height="2489.73" width="1.39" x="32.8" y="3.75"/>
            <rect class="cls-9" height="2489.73" width="4.18" x="45.33" y="3.75"/>
            <rect class="cls-9" height="2489.73" width="1.39" x="30.01" y="3.75"/>
            <rect class="cls-9" height="2489.73" width="2.78" x="35.58" y="3.75"/>
            <rect class="cls-9" height="2489.73" width="4.18" x="39.76" y="3.75"/>
            <rect class="cls-9" height="2489.73" width="1.39" x="56.47" y="3.75"/>
            <rect class="cls-9" height="2489.73" width="4.18" x="134.45" y="3.75"/>
            <rect class="cls-9" height="2489.73" width="8.35" x="98.25" y="3.75"/>
            <rect class="cls-9" height="2489.73" width="1.39" x="109.38" y="3.75"/>
            <rect class="cls-9" height="2489.73" width="1.39" x="107.99" y="3.75"/>
            <rect class="cls-9" height="2489.73" width="2.78" x="112.17" y="3.75"/>
            <rect class="cls-9" height="2489.73" width="6.96" x="116.35" y="3.75"/>
            <rect class="cls-9" height="2489.73" width="5.57" x="126.09" y="3.75"/>
            <rect class="cls-9" height="2489.73" width="1.39" x="89.89" y="3.75"/>
            <rect class="cls-9" height="2489.73" width="1.39" x="84.32" y="3.75"/>
            <rect class="cls-9" height="2489.73" width="1.39" x="87.11" y="3.75"/>
            <rect class="cls-9" height="2489.73" width="2.78" x="92.68" y="3.75"/>
            <rect class="cls-9" height="2489.73" width="1.39" x="78.75" y="3.75"/>
            <rect class="cls-9" height="2489.73" width="1.39" x="75.97" y="3.75"/>
            <rect class="cls-9" height="2489.73" width="1.39" x="73.18" y="3.75"/>
            <rect class="cls-9" height="2489.73" width="4.18" x="59.25" y="3.75"/>
            <rect class="cls-9" height="2489.73" width="5.57" x="64.83" y="3.75"/>
            <rect class="cls-9" height="2489.73" width="1.39" x="142.87" y="3.75"/>
            <rect class="cls-9" height="2489.73" width="1.39" x="145.66" y="3.75"/>
            <rect class="cls-9" height="2489.73" width="8.35" x="151.22" y="3.75"/>
            <rect class="cls-9" height="2489.73" width="1.39" x="162.36" y="3.75"/>
            <rect class="cls-9" height="2489.73" width="1.39" x="160.97" y="3.75"/>
            <rect class="cls-9" height="2489.73" width="2.78" x="165.15" y="3.75"/>
            <rect class="cls-9" height="2489.73" width="1.39" x="188.82" y="3.75"/>
            <rect class="cls-9" height="2489.73" width="6.96" x="169.33" y="3.75"/>
            <rect class="cls-9" height="2489.73" width="5.57" x="179.07" y="3.75"/>
            <rect class="cls-9" height="2489.73" width="1.39" x="197.18" y="3.75"/>
            <rect class="cls-9" height="2489.73" width="1.39" x="199.96" y="3.75"/>
            <rect class="cls-9" height="2489.73" width="4.18" x="191.61" y="3.75"/>
            <rect class="cls-9" height="2489.73" width="1.39" x="229.2" y="3.75"/>
            <rect class="cls-9" height="2489.73" width="1.39" x="209.71" y="3.75"/>
            <rect class="cls-9" height="2489.73" width="4.18" x="222.24" y="3.75"/>
            <rect class="cls-9" height="2489.73" width="1.39" x="202.74" y="3.75"/>
            <rect class="cls-9" height="2489.73" width="1.39" x="206.92" y="3.75"/>
            <rect class="cls-9" height="2489.73" width="2.78" x="212.49" y="3.75"/>
            <rect class="cls-9" height="2489.73" width="4.18" x="216.67" y="3.75"/>
            <rect class="cls-9" height="2489.73" width="1.39" x="303" y="3.75"/>
            <rect class="cls-9" height="2489.73" width="1.39" x="300.22" y="3.75"/>
            <rect class="cls-9" height="2489.73" width="4.18" x="315.53" y="3.75"/>
            <rect class="cls-9" height="2489.73" width="1.39" x="312.75" y="3.75"/>
            <rect class="cls-9" height="2489.73" width="1.39" x="321.1" y="3.75"/>
            <rect class="cls-9" height="2489.73" width="2.78" x="307.18" y="3.75"/>
            <rect class="cls-9" height="2489.73" width="1.39" x="233.38" y="3.75"/>
            <rect class="cls-9" height="2489.73" width="6.96" x="284.9" y="3.75"/>
            <rect class="cls-9" height="2489.73" width="5.57" x="244.52" y="3.75"/>
            <rect class="cls-9" height="2489.73" width="1.39" x="280.72" y="3.75"/>
            <rect class="cls-9" height="2489.73" width="1.39" x="277.94" y="3.75"/>
            <rect class="cls-9" height="2489.73" width="4.18" x="236.16" y="3.75"/>
            <rect class="cls-9" height="2489.73" width="1.39" x="252.87" y="3.75"/>
            <rect class="cls-9" height="2489.73" width="1.39" x="268.19" y="3.75"/>
            <rect class="cls-9" height="2489.73" width="4.18" x="257.05" y="3.75"/>
            <rect class="cls-9" height="2489.73" width="1.39" x="273.76" y="3.75"/>
            <rect class="cls-9" height="2489.73" width="1.39" x="270.97" y="3.75"/>
            <rect class="cls-9" height="2489.73" width="2.78" x="264.01" y="3.75"/>
            <rect class="cls-9" height="2489.73" width="4.18" x="293.25" y="3.75"/>
            <rect class="cls-9" height="2489.73" width="1.39" x="329.46" y="3.75"/>
            <rect class="cls-9" height="2489.73" width="1.39" x="326.67" y="3.75"/>
            <rect class="cls-9" height="2489.73" width="2.78" x="332.24" y="3.75"/>
            <rect class="cls-9" height="2489.73" width="4.18" x="336.42" y="3.75"/>
            <rect class="cls-9" height="2489.73" width="1.39" x="344.74" y="14.96"/>
            <rect class="cls-9" height="2489.73" width="1.39" x="347.52" y="14.96"/>
            <rect class="cls-9" height="2489.73" width="8.35" x="353.09" y="14.96"/>
            <rect class="cls-9" height="2489.73" width="1.39" x="364.23" y="14.96"/>
            <rect class="cls-9" height="2489.73" width="1.39" x="362.84" y="14.96"/>
            <rect class="cls-9" height="2489.73" width="2.78" x="367.02" y="14.96"/>
            <rect class="cls-9" height="2489.73" width="1.39" x="390.69" y="14.96"/>
            <rect class="cls-9" height="2489.73" width="6.96" x="371.19" y="14.96"/>
            <rect class="cls-9" height="2489.73" width="5.57" x="380.94" y="14.96"/>
            <rect class="cls-9" height="2489.73" width="1.39" x="399.04" y="14.96"/>
            <rect class="cls-9" height="2489.73" width="1.39" x="401.83" y="14.96"/>
            <rect class="cls-9" height="2489.73" width="4.18" x="393.47" y="14.96"/>
            <rect class="cls-9" height="2489.73" width="1.39" x="431.07" y="14.96"/>
            <rect class="cls-9" height="2489.73" width="1.39" x="411.57" y="14.96"/>
            <rect class="cls-9" height="2489.73" width="4.18" x="424.11" y="14.96"/>
            <rect class="cls-9" height="2489.73" width="1.39" x="404.61" y="14.96"/>
            <rect class="cls-9" height="2489.73" width="1.39" x="408.79" y="14.96"/>
            <rect class="cls-9" height="2489.73" width="2.78" x="414.36" y="14.96"/>
            <rect class="cls-9" height="2489.73" width="4.18" x="418.54" y="14.96"/>
            <rect class="cls-9" height="2489.73" width="1.39" x="504.87" y="14.96"/>
            <rect class="cls-9" height="2489.73" width="1.39" x="502.08" y="14.96"/>
            <rect class="cls-9" height="2489.73" width="4.18" x="517.4" y="14.96"/>
            <rect class="cls-9" height="2489.73" width="1.39" x="514.61" y="14.96"/>
            <rect class="cls-9" height="2489.73" width="1.39" x="522.97" y="14.96"/>
            <rect class="cls-9" height="2489.73" width="2.78" x="509.04" y="14.96"/>
            <rect class="cls-9" height="2489.73" width="1.39" x="435.25" y="14.96"/>
            <rect class="cls-9" height="2489.73" width="6.96" x="486.77" y="14.96"/>
            <rect class="cls-9" height="2489.73" width="5.57" x="446.38" y="14.96"/>
            <rect class="cls-9" height="2489.73" width="1.39" x="482.59" y="14.96"/>
            <rect class="cls-9" height="2489.73" width="1.39" x="479.8" y="14.96"/>
            <rect class="cls-9" height="2489.73" width="4.18" x="438.03" y="14.96"/>
            <rect class="cls-9" height="2489.73" width="1.39" x="454.74" y="14.96"/>
            <rect class="cls-9" height="2489.73" width="1.39" x="470.06" y="14.96"/>
            <rect class="cls-9" height="2489.73" width="4.18" x="458.92" y="14.96"/>
            <rect class="cls-9" height="2489.73" width="1.39" x="475.63" y="14.96"/>
            <rect class="cls-9" height="2489.73" width="1.39" x="472.84" y="14.96"/>
            <rect class="cls-9" height="2489.73" width="2.78" x="465.88" y="14.96"/>
            <rect class="cls-9" height="2489.73" width="4.18" x="495.12" y="14.96"/>
            <rect class="cls-9" height="2489.73" width="1.39" x="550.82" y="14.96"/>
            <rect class="cls-9" height="2489.73" width="1.39" x="531.32" y="14.96"/>
            <rect class="cls-9" height="2489.73" width="4.18" x="543.86" y="14.96"/>
            <rect class="cls-9" height="2489.73" width="1.39" x="528.54" y="14.96"/>
            <rect class="cls-9" height="2489.73" width="2.78" x="534.11" y="14.96"/>
            <rect class="cls-9" height="2489.73" width="4.18" x="538.29" y="14.96"/>
            <rect class="cls-9" height="2489.73" width="1.39" x="554.99" y="14.96"/>
            <rect class="cls-9" height="2489.73" width="4.18" x="557.78" y="14.96"/>
            <rect class="cls-9" height="2489.73" width="8.35" x="589.81" y="14.96"/>
            <rect class="cls-9" height="2489.73" width="1.39" x="585.63" y="14.96"/>
            <rect class="cls-9" height="2489.73" width="1.39" x="587.02" y="14.96"/>
            <rect class="cls-9" height="2489.73" width="2.78" x="581.45" y="14.96"/>
            <rect class="cls-9" height="2489.73" width="6.96" x="573.1" y="14.96"/>
            <rect class="cls-9" height="2489.73" width="5.57" x="564.74" y="14.96"/>
            <rect class="cls-9" height="2489.73" width="1.39" x="605.12" y="14.96"/>
            <rect class="cls-9" height="2489.73" width="1.39" x="610.69" y="14.96"/>
            <rect class="cls-9" height="2489.73" width="1.39" x="607.91" y="14.96"/>
            <rect class="cls-9" height="2489.73" width="2.78" x="600.95" y="14.96"/>
            <rect class="cls-9" height="2489.73" width="1.39" x="616.26" y="14.96"/>
            <rect class="cls-9" height="2489.73" width="1.39" x="619.05" y="14.96"/>
            <rect class="cls-9" height="2489.73" width="1.39" x="621.83" y="14.96"/>
            <rect class="cls-9" height="2489.73" width="4.18" x="632.97" y="14.96"/>
            <rect class="cls-9" height="2489.73" width="5.57" x="626.01" y="14.96"/>
            <rect class="cls-9" height="2489.73" width="1.39" x="663.67" y="14.96"/>
            <rect class="cls-9" height="2489.73" width="1.39" x="644.18" y="14.96"/>
            <rect class="cls-9" height="2489.73" width="4.18" x="656.71" y="14.96"/>
            <rect class="cls-9" height="2489.73" width="1.39" x="641.39" y="14.96"/>
            <rect class="cls-9" height="2489.73" width="2.78" x="646.96" y="14.96"/>
            <rect class="cls-9" height="2489.73" width="4.18" x="651.14" y="14.96"/>
            <rect class="cls-9" height="2489.73" width="1.39" x="667.85" y="14.96"/>
            <rect class="cls-9" height="2489.73" width="4.18" x="745.83" y="14.96"/>
            <rect class="cls-9" height="2489.73" width="8.35" x="709.63" y="14.96"/>
            <rect class="cls-9" height="2489.73" width="1.39" x="720.77" y="14.96"/>
            <rect class="cls-9" height="2489.73" width="1.39" x="719.37" y="14.96"/>
            <rect class="cls-9" height="2489.73" width="2.78" x="723.55" y="14.96"/>
            <rect class="cls-9" height="2489.73" width="6.96" x="727.73" y="14.96"/>
            <rect class="cls-9" height="2489.73" width="5.57" x="737.48" y="14.96"/>
            <rect class="cls-9" height="2489.73" width="1.39" x="701.27" y="14.96"/>
            <rect class="cls-9" height="2489.73" width="1.39" x="695.7" y="14.96"/>
            <rect class="cls-9" height="2489.73" width="1.39" x="698.49" y="14.96"/>
            <rect class="cls-9" height="2489.73" width="2.78" x="704.06" y="14.96"/>
            <rect class="cls-9" height="2489.73" width="1.39" x="690.13" y="14.96"/>
            <rect class="cls-9" height="2489.73" width="1.39" x="687.35" y="14.96"/>
            <rect class="cls-9" height="2489.73" width="1.39" x="684.56" y="14.96"/>
            <rect class="cls-9" height="2489.73" width="4.18" x="670.64" y="14.96"/>
            <rect class="cls-9" height="2489.73" width="5.57" x="676.21" y="14.96"/>
            <rect class="cls-9" height="2489.73" width="1.39" x="754.25" y="14.96"/>
            <rect class="cls-9" height="2489.73" width="1.39" x="757.04" y="14.96"/>
            <rect class="cls-9" height="2489.73" width="8.35" x="762.61" y="14.96"/>
            <rect class="cls-9" height="2489.73" width="1.39" x="773.75" y="14.96"/>
            <rect class="cls-9" height="2489.73" width="1.39" x="772.35" y="14.96"/>
            <rect class="cls-9" height="2489.73" width="2.78" x="776.53" y="14.96"/>
            <rect class="cls-9" height="2489.73" width="1.39" x="800.2" y="14.96"/>
            <rect class="cls-9" height="2489.73" width="6.96" x="780.71" y="14.96"/>
            <rect class="cls-9" height="2489.73" width="5.57" x="790.45" y="14.96"/>
            <rect class="cls-9" height="2489.73" width="1.39" x="808.56" y="14.96"/>
            <rect class="cls-9" height="2489.73" width="1.39" x="811.34" y="14.96"/>
            <rect class="cls-9" height="2489.73" width="4.18" x="802.99" y="14.96"/>
            <rect class="cls-9" height="2489.73" width="1.39" x="840.58" y="14.96"/>
            <rect class="cls-9" height="2489.73" width="1.39" x="821.09" y="14.96"/>
            <rect class="cls-9" height="2489.73" width="4.18" x="833.62" y="14.96"/>
            <rect class="cls-9" height="2489.73" width="1.39" x="814.13" y="14.96"/>
            <rect class="cls-9" height="2489.73" width="1.39" x="818.3" y="14.96"/>
            <rect class="cls-9" height="2489.73" width="2.78" x="823.87" y="14.96"/>
            <rect class="cls-9" height="2489.73" width="4.18" x="828.05" y="14.96"/>
            <rect class="cls-9" height="2489.73" width="1.39" x="914.38" y="14.96"/>
            <rect class="cls-9" height="2489.73" width="1.39" x="911.6" y="14.96"/>
            <rect class="cls-9" height="2489.73" width="4.18" x="926.91" y="14.96"/>
            <rect class="cls-9" height="2489.73" width="1.39" x="924.13" y="14.96"/>
            <rect class="cls-9" height="2489.73" width="1.39" x="932.48" y="14.96"/>
            <rect class="cls-9" height="2489.73" width="2.78" x="918.56" y="14.96"/>
            <rect class="cls-9" height="2489.73" width="1.39" x="844.76" y="14.96"/>
            <rect class="cls-9" height="2489.73" width="6.96" x="896.28" y="14.96"/>
            <rect class="cls-9" height="2489.73" width="5.57" x="855.9" y="14.96"/>
            <rect class="cls-9" height="2489.73" width="1.39" x="892.1" y="14.96"/>
            <rect class="cls-9" height="2489.73" width="1.39" x="889.32" y="14.96"/>
            <rect class="cls-9" height="2489.73" width="4.18" x="847.54" y="14.96"/>
            <rect class="cls-9" height="2489.73" width="1.39" x="864.25" y="14.96"/>
            <rect class="cls-9" height="2489.73" width="1.39" x="879.57" y="14.96"/>
            <rect class="cls-9" height="2489.73" width="4.18" x="868.43" y="14.96"/>
            <rect class="cls-9" height="2489.73" width="1.39" x="885.14" y="14.96"/>
            <rect class="cls-9" height="2489.73" width="1.39" x="882.36" y="14.96"/>
            <rect class="cls-9" height="2489.73" width="2.78" x="875.39" y="14.96"/>
            <rect class="cls-9" height="2489.73" width="4.18" x="904.63" y="14.96"/>
            <rect class="cls-9" height="2489.73" width="1.39" x="940.84" y="14.96"/>
            <rect class="cls-9" height="2489.73" width="1.39" x="938.05" y="14.96"/>
            <rect class="cls-9" height="2489.73" width="2.78" x="943.62" y="14.96"/>
            <rect class="cls-9" height="2489.73" width="4.18" x="947.8" y="14.96"/>
            <rect class="cls-9" height="2489.73" width="4.18" x="1158.09" y="14.96"/>
            <rect class="cls-9" height="2489.73" width="8.35" x="1190.11" y="14.96"/>
            <rect class="cls-9" height="2489.73" width="1.39" x="1185.94" y="14.96"/>
            <rect class="cls-9" height="2489.73" width="1.39" x="1187.33" y="14.96"/>
            <rect class="cls-9" height="2489.73" width="2.78" x="1181.76" y="14.96"/>
            <rect class="cls-9" height="2489.73" width="6.96" x="1173.4" y="14.96"/>
            <rect class="cls-9" height="2489.73" width="5.57" x="1165.05" y="14.96"/>
            <rect class="cls-9" height="2489.73" width="1.39" x="1152.45" y="14.96"/>
            <rect class="cls-9" height="2489.73" width="1.39" x="1149.67" y="14.96"/>
            <rect class="cls-9" height="2489.73" width="8.35" x="1137.13" y="14.96"/>
            <rect class="cls-9" height="2489.73" width="1.39" x="1132.96" y="14.96"/>
            <rect class="cls-9" height="2489.73" width="1.39" x="1134.35" y="14.96"/>
            <rect class="cls-9" height="2489.73" width="2.78" x="1128.78" y="14.96"/>
            <rect class="cls-9" height="2489.73" width="1.39" x="1106.5" y="14.96"/>
            <rect class="cls-9" height="2489.73" width="6.96" x="1120.43" y="14.96"/>
            <rect class="cls-9" height="2489.73" width="5.57" x="1112.07" y="14.96"/>
            <rect class="cls-9" height="2489.73" width="1.39" x="1098.15" y="14.96"/>
            <rect class="cls-9" height="2489.73" width="1.39" x="1095.36" y="14.96"/>
            <rect class="cls-9" height="2489.73" width="4.18" x="1100.93" y="14.96"/>
            <rect class="cls-9" height="2489.73" width="1.39" x="1066.12" y="14.96"/>
            <rect class="cls-9" height="2489.73" width="1.39" x="1085.61" y="14.96"/>
            <rect class="cls-9" height="2489.73" width="4.18" x="1070.3" y="14.96"/>
            <rect class="cls-9" height="2489.73" width="1.39" x="1092.58" y="14.96"/>
            <rect class="cls-9" height="2489.73" width="1.39" x="1088.4" y="14.96"/>
            <rect class="cls-9" height="2489.73" width="2.78" x="1081.44" y="14.96"/>
            <rect class="cls-9" height="2489.73" width="4.18" x="1075.87" y="14.96"/>
            <rect class="cls-9" height="2489.73" width="1.39" x="992.32" y="14.96"/>
            <rect class="cls-9" height="2489.73" width="1.39" x="995.11" y="14.96"/>
            <rect class="cls-9" height="2489.73" width="4.18" x="977" y="14.96"/>
            <rect class="cls-9" height="2489.73" width="1.39" x="982.57" y="14.96"/>
            <rect class="cls-9" height="2489.73" width="1.39" x="974.22" y="14.96"/>
            <rect class="cls-9" height="2489.73" width="2.78" x="986.75" y="14.96"/>
            <rect class="cls-9" height="2489.73" width="1.39" x="1061.94" y="14.96"/>
            <rect class="cls-9" height="2489.73" width="6.96" x="1004.85" y="14.96"/>
            <rect class="cls-9" height="2489.73" width="5.57" x="1046.63" y="14.96"/>
            <rect class="cls-9" height="2489.73" width="1.39" x="1014.6" y="14.96"/>
            <rect class="cls-9" height="2489.73" width="1.39" x="1017.38" y="14.96"/>
            <rect class="cls-9" height="2489.73" width="4.18" x="1056.37" y="14.96"/>
            <rect class="cls-9" height="2489.73" width="1.39" x="1042.45" y="14.96"/>
            <rect class="cls-9" height="2489.73" width="1.39" x="1027.13" y="14.96"/>
            <rect class="cls-9" height="2489.73" width="4.18" x="1035.49" y="14.96"/>
            <rect class="cls-9" height="2489.73" width="1.39" x="1021.56" y="14.96"/>
            <rect class="cls-9" height="2489.73" width="1.39" x="1024.35" y="14.96"/>
            <rect class="cls-9" height="2489.73" width="2.78" x="1029.92" y="14.96"/>
            <rect class="cls-9" height="2489.73" width="4.18" x="999.28" y="14.96"/>
            <rect class="cls-9" height="2489.73" width="1.39" x="965.86" y="14.96"/>
            <rect class="cls-9" height="2489.73" width="1.39" x="968.65" y="14.96"/>
            <rect class="cls-9" height="2489.73" width="2.78" x="961.69" y="14.96"/>
            <rect class="cls-9" height="2489.73" width="4.18" x="956.12" y="14.96"/>
          </g>
        </g>
      </g>
    </g>
  </g>
</svg>